<mxfile host="Electron" modified="2023-06-15T01:19:37.319Z" agent="Mozilla/5.0 (Windows NT 10.0; Win64; x64) AppleWebKit/537.36 (KHTML, like Gecko) draw.io/21.4.0 Chrome/112.0.5615.204 Electron/24.5.1 Safari/537.36" etag="Vrk3xahshGcKewBAO6to" version="21.4.0" type="device">
  <diagram name="Страница 1" id="x-cEHAywIKYn9VB0mxN0">
    <mxGraphModel dx="1596" dy="868" grid="1" gridSize="10" guides="1" tooltips="1" connect="1" arrows="1" fold="1" page="1" pageScale="1" pageWidth="827" pageHeight="1169" math="0" shadow="0">
      <root>
        <mxCell id="0" />
        <mxCell id="1" parent="0" />
        <mxCell id="nB_qwQjfUgqTb6RSLKuS-5" value="" style="edgeStyle=orthogonalEdgeStyle;rounded=0;orthogonalLoop=1;jettySize=auto;html=1;" edge="1" parent="1" source="nB_qwQjfUgqTb6RSLKuS-1">
          <mxGeometry relative="1" as="geometry">
            <mxPoint x="400" y="260" as="targetPoint" />
          </mxGeometry>
        </mxCell>
        <mxCell id="nB_qwQjfUgqTb6RSLKuS-1" value="Start" style="rounded=1;whiteSpace=wrap;html=1;" vertex="1" parent="1">
          <mxGeometry x="340" y="160" width="120" height="60" as="geometry" />
        </mxCell>
        <mxCell id="nB_qwQjfUgqTb6RSLKuS-8" value="&lt;h1&gt;&lt;font style=&quot;font-size: 12px;&quot;&gt;Задача 6. Составить блок-схему нахождения факториала N.&lt;/font&gt;&lt;br&gt;&lt;/h1&gt;" style="text;html=1;strokeColor=none;fillColor=none;spacing=5;spacingTop=-20;whiteSpace=wrap;overflow=hidden;rounded=0;" vertex="1" parent="1">
          <mxGeometry x="230" y="50" width="340" height="80" as="geometry" />
        </mxCell>
        <mxCell id="nB_qwQjfUgqTb6RSLKuS-30" value="" style="edgeStyle=orthogonalEdgeStyle;rounded=0;orthogonalLoop=1;jettySize=auto;html=1;" edge="1" parent="1" source="nB_qwQjfUgqTb6RSLKuS-9" target="nB_qwQjfUgqTb6RSLKuS-18">
          <mxGeometry relative="1" as="geometry" />
        </mxCell>
        <mxCell id="nB_qwQjfUgqTb6RSLKuS-9" value="N, fact = 1, i = 1" style="shape=parallelogram;perimeter=parallelogramPerimeter;whiteSpace=wrap;html=1;fixedSize=1;" vertex="1" parent="1">
          <mxGeometry x="270" y="260" width="260" height="60" as="geometry" />
        </mxCell>
        <mxCell id="nB_qwQjfUgqTb6RSLKuS-27" value="" style="edgeStyle=orthogonalEdgeStyle;rounded=0;orthogonalLoop=1;jettySize=auto;html=1;" edge="1" parent="1" source="nB_qwQjfUgqTb6RSLKuS-18" target="nB_qwQjfUgqTb6RSLKuS-26">
          <mxGeometry relative="1" as="geometry" />
        </mxCell>
        <mxCell id="nB_qwQjfUgqTb6RSLKuS-32" value="" style="edgeStyle=orthogonalEdgeStyle;rounded=0;orthogonalLoop=1;jettySize=auto;html=1;" edge="1" parent="1" source="nB_qwQjfUgqTb6RSLKuS-18" target="nB_qwQjfUgqTb6RSLKuS-31">
          <mxGeometry relative="1" as="geometry" />
        </mxCell>
        <mxCell id="nB_qwQjfUgqTb6RSLKuS-18" value="i &amp;lt;= N" style="rhombus;whiteSpace=wrap;html=1;" vertex="1" parent="1">
          <mxGeometry x="360" y="360" width="80" height="80" as="geometry" />
        </mxCell>
        <mxCell id="nB_qwQjfUgqTb6RSLKuS-29" value="" style="edgeStyle=orthogonalEdgeStyle;rounded=0;orthogonalLoop=1;jettySize=auto;html=1;" edge="1" parent="1" source="nB_qwQjfUgqTb6RSLKuS-26" target="nB_qwQjfUgqTb6RSLKuS-28">
          <mxGeometry relative="1" as="geometry" />
        </mxCell>
        <mxCell id="nB_qwQjfUgqTb6RSLKuS-26" value="fact" style="shape=document;whiteSpace=wrap;html=1;boundedLbl=1;" vertex="1" parent="1">
          <mxGeometry x="500" y="360" width="120" height="80" as="geometry" />
        </mxCell>
        <mxCell id="nB_qwQjfUgqTb6RSLKuS-28" value="End" style="rounded=1;whiteSpace=wrap;html=1;" vertex="1" parent="1">
          <mxGeometry x="680" y="370" width="120" height="60" as="geometry" />
        </mxCell>
        <mxCell id="nB_qwQjfUgqTb6RSLKuS-34" value="" style="edgeStyle=orthogonalEdgeStyle;rounded=0;orthogonalLoop=1;jettySize=auto;html=1;" edge="1" parent="1" source="nB_qwQjfUgqTb6RSLKuS-31" target="nB_qwQjfUgqTb6RSLKuS-33">
          <mxGeometry relative="1" as="geometry" />
        </mxCell>
        <mxCell id="nB_qwQjfUgqTb6RSLKuS-31" value="fact = fact * i" style="whiteSpace=wrap;html=1;" vertex="1" parent="1">
          <mxGeometry x="340" y="480" width="120" height="60" as="geometry" />
        </mxCell>
        <mxCell id="nB_qwQjfUgqTb6RSLKuS-41" value="" style="edgeStyle=orthogonalEdgeStyle;rounded=0;orthogonalLoop=1;jettySize=auto;html=1;entryX=0;entryY=0.5;entryDx=0;entryDy=0;" edge="1" parent="1" source="nB_qwQjfUgqTb6RSLKuS-33" target="nB_qwQjfUgqTb6RSLKuS-18">
          <mxGeometry relative="1" as="geometry">
            <mxPoint x="260" y="650" as="targetPoint" />
            <Array as="points">
              <mxPoint x="290" y="650" />
              <mxPoint x="290" y="400" />
            </Array>
          </mxGeometry>
        </mxCell>
        <mxCell id="nB_qwQjfUgqTb6RSLKuS-33" value="i = i + 1" style="whiteSpace=wrap;html=1;" vertex="1" parent="1">
          <mxGeometry x="340" y="620" width="120" height="60" as="geometry" />
        </mxCell>
      </root>
    </mxGraphModel>
  </diagram>
</mxfile>
